PathFileType	4	(X/Y/Z)	/Users/mathieubourgeois/Desktop/Analyse/Traitement/Sujet_01/Data/Transformed_Sujet_01_velo_60.trc
DataRate	CameraRate	NumFrames	NumMarkers	Units	OrigDataRate	OrigDataStartFrame	OrigNumFrames
120.000000	120.000000	4	36	mm	120.000000	0	1931
Frame#	Time	C7			RFHD			LFHD			RBHD			LBHD			RSHO			LSHO			CLAV			STRN			T10			RBWT			LBWT			RFWT			LFWT			RRAD			RWRA			RWRB			RCAR			RHUM			LHUM			LRAD			LWRA			LWRB			LCAR			RKNI			RKNE			LKNI			LKNE			RANE			RANI			RTOE			RHEE			LTOE			LANI			LANE			LHEE			
		X1	Y1	Z1	X2	Y2	Z2	X3	Y3	Z3	X4	Y4	Z4	X5	Y5	Z5	X6	Y6	Z6	X7	Y7	Z7	X8	Y8	Z8	X9	Y9	Z9	X10	Y10	Z10	X11	Y11	Z11	X12	Y12	Z12	X13	Y13	Z13	X14	Y14	Z14	X15	Y15	Z15	X16	Y16	Z16	X17	Y17	Z17	X18	Y18	Z18	X19	Y19	Z19	X20	Y20	Z20	X21	Y21	Z21	X22	Y22	Z22	X23	Y23	Z23	X24	Y24	Z24	X25	Y25	Z25	X26	Y26	Z26	X27	Y27	Z27	X28	Y28	Z28	X29	Y29	Z29	X30	Y30	Z30	X31	Y31	Z31	X32	Y32	Z32	X33	Y33	Z33	X34	Y34	Z34	X35	Y35	Z35	X36	Y36	Z36	

1	0	-30.88193702697757	1463.055419921875	277.4472351074218	204.460464477539	1436.074340820312	301.8178710937499	169.3069152832031	1449.442016601562	181.5298461914062	84.70816040039058	1514.3037109375	351.9385986328124	41.18136978149411	1531.973388671875	228.4292449951171	-20.59173965454106	1389.859497070312	379.2846374511718	-17.46010971069338	1384.299072265625	162.7074890136718	14.0346002578735	1319.036499023438	273.2308349609374	-50.232780456543	1220.562133789062	273.2742004394531	-229.9835968017578	1382.797241210938	269.7890014648437	-418.5165100097657	1114.244262695312	318.3620300292968	-413.7081604003906	1104.843872070312	199.901397705078	-251.0121154785157	1076.1396484375	381.5750732421874	-229.2808685302735	1074.790405273438	156.2004089355468	91.52632141113276	1144.20166015625	452.7720947265624	302.2598266601562	1042.626586914062	384.9683837890625	328.0644836425781	1055.257690429688	444.803466796875	408.3986816406249	1025.939819335938	378.0370788574219	140.6712341308593	1184.517822265625	476.2517395019531	157.7436370849609	1196.7080078125	62.46063613891597	104.2490310668945	1159.195922851562	70.02124023437494	320.7526550292969	1049.880737304688	140.3100433349609	343.0481872558594	1064.77197265625	78.335823059082	409.3689270019531	1032.7919921875	140.5623321533203	-41.16463851928715	803.5567016601562	355.1459045410156	-38.84969711303717	830.0174560546875	476.7378234863281	-59.65125274658206	695.770751953125	208.289077758789	-77.7779998779297	676.086181640625	85.30385589599604	-289.9488525390626	607.7310180664062	424.4534912109374	-260.7413940429688	600.4584350585938	346.9024353027343	-144.2078857421876	487.6412353515625	432.2920227050781	-362.6028137207032	585.4276123046875	371.7682495117186	96.71032714843749	263.0391235351562	136.8307952880859	-76.01958465576175	336.4781799316406	180.6807098388672	-89.91629028320314	331.9888610839844	105.7341156005859	-155.9900207519532	291.1013793945312	145.8647155761718	
2	0.008333333333333333	-30.86460113525394	1462.787719726562	277.008575439453	204.5907135009765	1435.525024414062	300.8848571777343	169.1432342529297	1449.289916992188	180.8141632080078	85.18288421630855	1513.885009765625	351.6200561523436	41.39707183837888	1532.01953125	228.2664489746093	-20.55285644531255	1389.765991210938	379.1223449707031	-17.49746322631838	1383.837036132812	162.2688751220702	14.05028724670407	1318.881591796875	273.0121459960937	-50.03172302246097	1220.276733398438	273.3616333007812	-229.926254272461	1382.50830078125	269.4883728027343	-418.6387939453126	1114.15771484375	317.8551940917968	-413.5534973144531	1104.579345703125	199.4872741699218	-251.2575225830079	1076.456298828125	381.4237365722655	-228.8988189697266	1074.155517578125	156.1671447753905	91.42401885986322	1144.028076171875	452.7507019042968	302.1030273437499	1042.379638671875	385.0021057128906	327.8597717285156	1055.126342773438	444.7994995117188	408.2341613769531	1026.103393554688	377.9971923828125	140.3799133300781	1184.552368164062	476.5262756347656	157.7640686035156	1196.602416992188	62.54114151000972	104.2926940917969	1159.010009765625	70.13064575195307	320.86572265625	1049.781860351562	140.2098236083984	343.1118774414062	1064.708251953125	78.2841873168945	409.3567199707031	1032.781494140625	140.5697784423828	-36.36071777343754	809.9689331054688	355.7170715332031	-35.73059463500982	836.5563354492188	477.3589477539062	-64.5644226074219	690.9422607421875	207.9156188964843	-83.12844085693361	671.3134155273438	84.98621368408197	-285.2692260742188	612.8796997070312	424.7382507324218	-256.1882324218751	606.0647583007812	347.1669616699218	-137.8312988281251	495.0766296386719	432.3922729492187	-357.8882141113282	589.5906982421875	372.1503295898436	90.70105743408202	255.6726837158203	136.5821228027343	-80.75441741943362	331.6748046875	180.3126831054687	-95.66745758056642	327.5008239746094	105.7555389404297	-161.5492095947266	287.6874694824219	145.6757659912109	
3	0.01666666666666667	-30.83905982971195	1462.497680664062	276.475128173828	204.6780242919922	1434.760375976562	299.9532775878905	168.9584197998047	1449.351806640625	180.0065307617187	85.65184783935543	1513.216552734375	351.4627380371093	41.62247467041013	1532.188232421875	228.2838745117187	-20.47508811950688	1389.621704101562	378.8534851074218	-17.54428863525393	1383.379272460938	161.6673889160155	13.9273700714111	1318.675170898438	272.7410583496093	-49.92378616333011	1220.009521484375	273.3254699707031	-229.9400634765625	1382.247680664062	269.1944274902343	-418.7393493652344	1113.997680664062	317.3920898437499	-413.4696044921875	1104.2880859375	199.0862579345702	-251.4805908203126	1076.8017578125	381.2752685546874	-228.6197357177735	1073.576904296875	156.1339569091796	91.32494354248041	1143.902709960938	452.7561035156249	301.9113769531249	1042.105590820312	385.0009765625	327.6676025390624	1055.017333984375	444.7747497558594	408.0566406249999	1026.272094726562	377.9253234863281	140.4527740478515	1184.147094726562	476.2777709960937	157.7151031494141	1196.418823242188	62.47117614746089	104.2779312133789	1158.781494140625	70.00986480712885	320.9230346679688	1049.701538085938	140.070083618164	343.1239013671875	1064.619506835938	78.16069793701169	409.3377990722656	1032.807373046875	140.5183715820312	-28.98014831542973	815.9307250976562	356.3514709472656	-32.58906936645513	843.0558471679688	477.8079223632812	-69.38215637207034	686.48095703125	207.6596374511718	-88.27577209472658	666.9764404296875	84.74978637695307	-280.3904418945313	617.6054077148438	424.9986877441405	-251.2725524902344	611.3292846679688	347.375274658203	-131.5708923339844	502.0249633789062	432.6257934570312	-352.8622741699219	593.28173828125	372.392120361328	84.35016632080077	248.6838226318359	136.3252563476562	-84.51330566406253	327.2406311035156	179.8804321289062	-101.3472137451172	323.2831420898438	105.6969223022461	-167.4919128417969	284.417236328125	145.2866821289062	
4	0.025	-30.86028671264652	1462.160888671875	275.8414916992186	204.6940765380859	1433.868774414062	298.9775390624999	168.7021331787109	1449.552368164062	179.3117980957031	86.12213897705074	1512.375122070312	351.4418334960936	41.93225097656247	1532.474365234375	228.4438018798827	-20.44312286376958	1389.46337890625	378.4499511718749	-17.7439823150635	1382.82861328125	161.0488128662109	13.75378227233883	1318.461059570312	272.3843078613281	-49.90188598632816	1219.774291992188	273.2528686523437	-229.984603881836	1382.00830078125	268.9151611328124	-418.9005126953126	1113.842407226562	317.0511779785155	-413.4472045898438	1104.009155273438	198.7711944580077	-251.6877593994141	1077.169067382812	381.1251525878905	-228.4140625	1073.07763671875	156.1282653808593	91.21094512939447	1143.813842773438	452.7492370605468	301.7432861328124	1041.786865234375	384.9506225585938	327.4804382324218	1054.924072265625	444.7257690429688	407.8763122558593	1026.447265625	377.8408813476562	140.1984710693359	1184.285888671875	476.3122558593749	157.5909729003906	1196.135620117188	62.25588607788081	104.2145690917969	1158.491088867188	69.73260498046869	320.9115295410156	1049.625	139.8985443115234	343.0493469238281	1064.475341796875	77.96130371093747	409.2849731445312	1032.880126953125	140.4046173095703	-27.19108581542973	822.9610595703125	357.0427246093749	-29.61240959167486	849.5834350585938	478.2468872070312	-73.94727325439456	682.4129638671875	207.4408721923828	-93.27020263671876	663.0723266601562	84.56835937499994	-275.2136535644532	621.8567504882812	425.1531372070311	-246.1693115234375	616.1060180664062	347.5838928222655	-124.2575149536133	508.3927917480469	432.3190307617187	-347.5183410644532	596.4766235351562	372.6777038574218	77.65223693847655	242.1136169433594	136.073974609375	-86.53655242919925	324.6876220703125	179.8460693359375	-107.2083892822266	319.4562377929688	105.6567153930664	-173.7084503173828	281.6160888671875	145.4006042480468	
